{"title":"Artifact.2012.720p.WEBRip.x264-Fastbet99","uid":9461782,"size":1331130870,"categoryP":"video","categoryS":"hd___movies","magnet":"?xt=urn:btih:2e04194df98ac106288d2d7bbc77ebec5b7bf799&amp;dn=Artifact.2012.720p.WEBRip.x264-Fastbet99&amp;tr=udp%3A%2F%2Ftracker.openbittorrent.com%3A80&amp;tr=udp%3A%2F%2Fopen.demonii.com%3A1337&amp;tr=udp%3A%2F%2Ftracker.coppersurfer.tk%3A6969&amp;tr=udp%3A%2F%2Fexodus.desync.com%3A6969","seeders":11,"leechers":2,"uploader":"Fastbet99","files":-1,"time":1389368834,"description":"Artifact (2012)\n\nIMDB Info\t\t\t\t : http://www.imdb.com/title/tt2370718\n\nSource\t\t\t\t\t : fiend (Thanks)\nComplete name                            : Artifact.2012.720p.WEBRip.x264-Fastbet99.mp4\nFormat                                   : MPEG-4\nFormat profile                           : Base Media\nCodec ID                                 : isom\nFile size                                : 1.24 GiB\nDuration                                 : 1h 43mn\nOverall bit rate mode                    : Variable\nOverall bit rate                         : 1 709 Kbps\n\nVideo\nID                                       : 1\nFormat                                   : AVC\nFormat/Info                              : Advanced Video Codec\nFormat profile                           : &lt;a class=&quot;__cf_email__&quot; href=&quot;/cdn-cgi/l/email-protection&quot; data-cfemail=&quot;feb6979996beb2cad0cf&quot;&gt;[email&amp;#160;protected]&lt;/a&gt;&lt;script cf-hash='f9e31' type=&quot;text/javascript&quot;&gt;\n/* &lt;![CDATA[ */!function(){try{var t=&quot;currentScript&quot;in document?document.currentScript:function(){for(var t=document.getElementsByTagName(&quot;script&quot;),e=t.length;e--;)if(t[e].getAttribute(&quot;cf-hash&quot;))return t[e]}();if(t&amp;&amp;t.previousSibling){var e,r,n,i,c=t.previousSibling,a=c.getAttribute(&quot;data-cfemail&quot;);if(a){for(e=&quot;&quot;,r=parseInt(a.substr(0,2),16),n=2;a.length-n;n+=2)i=parseInt(a.substr(n,2),16)^r,e+=String.fromCharCode(i);e=document.createTextNode(e),c.parentNode.replaceChild(e,c)}}}catch(u){}}();/* ]]&gt; */&lt;/script&gt;\nFormat settings, CABAC                   : Yes\nFormat settings, ReFrames                : 4 frames\nCodec ID                                 : avc1\nCodec ID/Info                            : Advanced Video Coding\nDuration                                 : 1h 43mn\nBit rate                                 : 1 558 Kbps\nMaximum bit rate                         : 12.6 Mbps\nWidth                                    : 1 280 pixels\nHeight                                   : 720 pixels\nDisplay aspect ratio                     : 16:9\nFrame rate mode                          : Constant\nFrame rate                               : 23.976 fps\nColor space                              : YUV\nChroma subsampling                       : 4:2:0\nBit depth                                : 8 bits\nScan type                                : Progressive\nBits/(Pixel*Frame)                       : 0.071\nStream size                              : 1.13 GiB (91%)\nWriting library                          : x264 core 138 r2358 9e941d1\n\nAudio\nID                                       : 2\nFormat                                   : AAC\nFormat/Info                              : Advanced Audio Codec\nFormat profile                           : LC\nCodec ID                                 : 40\nDuration                                 : 1h 43mn\nBit rate mode                            : Variable\nBit rate                                 : 144 Kbps\nMaximum bit rate                         : 274 Kbps\nChannel count                            : 2 channels\nChannel positions                        : Front: L R\nSampling rate                            : 48.0 KHz\nCompression mode                         : Lossy\nStream size                              : 109 MiB (9%)\nLanguage                                 : English\n\nText\nID                                       : 3\nFormat                                   : Timed Text\nCodec ID                                 : tx3g\nDuration                                 : 1h 41mn\nBit rate mode                            : Variable\nBit rate                                 : 109 bps\nStream size                              : 80.9 KiB (0%)\nLanguage                                 : English\nEncoder\t\t\t\t\t : Fastbet99\n\nScreenshots\n &lt;a href=&quot;\nhttp://lookpic.com/O/i2/854/oidVwlsA.jpeg&quot; rel=&quot;nofollow&quot; target=&quot;_NEW&quot;&gt;\nhttp://lookpic.com/O/i2/854/oidVwlsA.jpeg&lt;/a&gt;\n\nStairway To heaven - Help People With Keep Seed As Long You Can","torrent":{"xt":"urn:btih:2e04194df98ac106288d2d7bbc77ebec5b7bf799","amp;dn":"Artifact.2012.720p.WEBRip.x264-Fastbet99","amp;tr":["udp%3A%2F%2Ftracker.openbittorrent.com%3A80","udp%3A%2F%2Fopen.demonii.com%3A1337","udp%3A%2F%2Ftracker.coppersurfer.tk%3A6969","udp%3A%2F%2Fexodus.desync.com%3A6969"],"infoHash":"2e04194df98ac106288d2d7bbc77ebec5b7bf799","infoHashBuffer":{"type":"Buffer","data":[46,4,25,77,249,138,193,6,40,141,45,123,188,119,235,236,91,123,247,153]},"announce":[],"urlList":[]}}